<?xml version="1.0" encoding="utf-8"?>
<!-- Generator: Adobe Illustrator 21.1.0, SVG Export Plug-In . SVG Version: 6.00 Build 0)  -->
<svg version="1.1" id="Layer_1" xmlns="http://www.w3.org/2000/svg" xmlns:xlink="http://www.w3.org/1999/xlink" x="0px" y="0px"
	 viewBox="0 0 197 222" enable-background="new 0 0 197 222" xml:space="preserve">
<g>
	<path fill="#3F80DF" d="M180.6,115.8V71.3l-10.9,2.1V57.4L98,16L26.3,57.4v35.2l-9.8,9.8l-0.5,0.1V147l10.2-1.9c0,0.1,0,0.3,0,0.4
		c0,19.2,7.5,37.2,21,50.7c13.6,13.6,31.6,21,50.7,21c19.2,0,37.2-7.5,50.7-21c13.6-13.6,21-31.6,21-50.7c0-0.6,0-1.2,0-1.8v-17
		L180.6,115.8z M36.5,63.8l61.6-35.6l61.6,35.6v12l-3.9,0.7v-7.9L98.1,35.3L40.3,68.6v29.8l-3.9,0.7V63.8z M114,78
		c0.1,0.5-0.4,2.2-0.9,2.3c-0.4,0.1-0.9-1.6-0.8-2.1c0.1-0.4,0.3-0.8,0.5-0.9s-0.2-0.4-0.1-0.7c0.1-0.3,0.3-1.1,0.3-1.4
		c-0.1-0.3,0-1.2-0.1-1.4c-0.1-0.2-0.3-1.5-0.4-1.5c-0.1,0-0.5,0.4-0.6,0.7c-0.1,0.3-0.2,0.9-0.3,1c-0.1,0.1-0.4,0-0.6,0.2
		c-0.2,0.2-1.5,1-1.8,1.1c-0.4,0.1-1.4,0.7-1.7,0.7c-0.4-0.1,0.3-0.8,0.3-1c0-0.2,0.4-0.9,0.6-0.9c0.2,0,0.6-0.3,0.8-0.2
		c0.2,0.1,0.4,0,0.4-0.1c0-0.1,0-0.5,0.1-0.5c0.1,0,1-0.6,1.1-0.8c0,0,0.4-0.4,0.3-0.4c-0.1,0-5.3,0-5.4-0.2
		c-0.1-0.2-0.2-0.3-0.2-0.3s-2,0.6-2.6,0.5c-0.5,0-3.2,1.7-4.5,1.5c-1.3-0.2-2.2-0.7-2.9-0.5c-0.7,0.2-1.2,1.6-1.5,1.8
		c-0.3,0.1-2.5,1.1-3.7,1.3c-1.3,0.2-2.6,0-2.7,0.4c-0.1,0.4,0.4,3.3,0.5,3.7c0.2,0.4-1.6,2.1-1.9,2.2c-0.3,0.1-1.1,0.7-1.3,0.9
		c-0.1,0.2-0.5,0.1-0.6-0.2c0-0.3,0-1.3,0.3-1.6c0.3-0.3,0.7-0.7,1-0.6c0.3,0,0.4,0.1,0.4-0.1s-0.1-0.5,0.1-0.7
		c0.2-0.2,0.5-1.3,0.4-1.6c0,0-0.1-1.2-0.1-1.3l0,0v0l0,0c0,0,0,0,0-0.1c-0.1-0.1-0.2,0-0.2,0S83.7,80,83.6,81
		c-0.1,1,0.1,1.8,0.1,1.8s0.7,1.1,0.7,1.4c0.1,0.2-1.6,0.4-1.7,0.3c-0.1-0.1,0.1-0.2,0-0.3c-0.1-0.1-0.5-0.2-0.6-0.5
		c0-0.3-0.3-0.7-0.2-0.8c0.1-0.1,0.5-0.5,0.3-0.8c-0.2-0.2-0.4-0.2-0.4-0.4s-0.2-0.7,0-0.9s2.9-4.2,3.2-4.5c0.3-0.3,0.7-0.8,0.7-1.2
		c-0.1-0.4-0.3-1-0.1-1.2c0.1-0.2,0.5-0.3,1-0.2s3.2,0.2,2.9-0.8s-0.6-1.5-0.5-2.4c0.1-0.9,0.1-2,0.5-2.1s0.1-0.5,0.5-0.8
		c0.4-0.3,1.2-0.7,1.5-0.7c0.3,0.1,1.7-0.8,2.4-0.8c0.7,0,4-0.2,4.5-0.4c0.5-0.3,1.9-0.6,2.3-0.9c0.4-0.3,1.2-0.9,1.5-1
		c0.3-0.1,1.3-0.5,1.6-0.8c0.3-0.3,0.7-0.5,1-1.1c0.3-0.6,0.4-1.2,0.3-1.6c-0.1-0.4-0.3-1.2-0.3-1.4c0-0.1-1.1,0-1.3-0.5
		c-0.2-0.5,1-1,1.1-1.1c0-0.1-0.5-0.1-0.3-0.6c0.2-0.5,0.4-0.6,0.6-0.7c0.2,0,0.2-0.6,0.4-0.7s-0.3-0.1-0.3-0.7
		c0-0.5-0.8,0.4-3.7,0.1c0,0-1.1,0-4-1.9c0,0-2.3-0.1-2.8-0.7c0,0,1.3,0.3,1.6,0c0,0-2.4-1.7-2.5-2.4c-0.1-0.7,1.6,1.3,2.1,1.5
		c0.5,0.1,1.3,0.7,1.6,0.5c0.3-0.3,0.4-0.6,0.4-1c-0.1-0.4-0.4-1.8-0.4-1.8s0.9,0.8,0.9,2s0.1,1.6,0.4,1.8c0.3,0.2,1.9,1.3,2.6,1.1
		c0.7-0.2,1.1-0.1,1.3-1.1c0,0,0-0.3-0.2-0.5c-0.2-0.2-3-2.9-3-2.9l-2.2-1.9c0,0-2.7-0.6-2.8-1.3c0,0,0.5,0,0.7,0.1
		c0,0-1.6-2.1-1.6-2.4c0,0,0.6,0,0.9,0.5s1.5,2,2.6,1.9c1-0.1,1.4-0.5,1.4-1.2c0-0.7-0.4-1.9-0.1-2.4c0.3-0.5,0.6,1.8,0.6,1.8
		c0,0,0,1.7,0.1,2.2s0.4,1.3,1.1,1.9c0.8,0.6,1.8,1.6,1.8,1.6l0.5,0.4c0,0-0.5-0.9-0.4-1.1c0.1-0.3,0.4,0.3,0.4,0.3s0.2,0.8,0.4,0.8
		c0.2,0.1,0.8-0.1,0.9-1.6c0.1-1.5-1-3.2-0.8-3.4c0.1-0.2,0.2-0.1,0.3,0.1c0.1,0.2,1,1.3,1.1,1.8c0.1,0.4,0.5,1.3,0.3,2.2
		c-0.2,0.9-0.7,1.6-0.6,2c0.1,0.3,0.3,1.1,0.9,1.2c0.7,0.1,1.5-0.7,1.6-0.9s-0.2-1.4-0.3-1.7c-0.1-0.3-0.3-0.7-0.1-0.7
		c0.1,0,0.5,0.6,0.7,1c0.1,0.4,0.2,0.7,0.2,0.9c0,0.2,0.4-0.4,0.4-0.6s0.1-1,0-1.2s-0.1-1.2-0.1-1.4c-0.1-0.2,0-0.5,0.1-0.3
		s0.5,1.1,0.5,1.5c0.1,0.4,0.3,0.9,0.2,1.4c-0.1,0.6-0.2,1.1-0.6,1.4c-0.4,0.3-0.9,0.5-0.9,0.7c0,0.2,0.2,0.3,0.5,0.4
		c0.3,0,0.7,0,0.9-0.1c0.2-0.1,0.4,0,0.6,0c0.2,0,3.4-1.2,3.9-1.2c0.4,0,0.5,0,0.6,0.2c0.1,0.1,0.4,0.7,0.2,1
		c-0.2,0.3-0.4,0.4-0.3,0.4c0.1,0,0.5-0.3,0.5-0.1s0.2,0.7-0.7,1.1c-0.9,0.4-0.7,0.3-0.8,0.6c-0.1,0.4-0.9,1.4-1.3,1.7
		c-0.4,0.4-0.5,0.7-0.4,1.1c0.1,0.3,0,0.7,0,0.9c0,0.2,0.8,0.9,1,1.4c0.1,0.5,0.4,1.2,0.4,1.5s0.2,0.7,0.1,1.2s-0.9,2.9-1.3,3.3
		c0,0-0.2,0.3-0.1,1.2c0,0.8-0.4,1.3-0.4,1.3s2.7-0.1,3.1,0.1c0.4,0.2,0.9,0.8,0.9,1c0,0.2,0,0.6-0.2,0.8c0,0-0.3,0.1,0.1,0.4
		c0.4,0.3,0.5,0.8,0.5,1.1c-0.1,0.3,0.1,2.4,0.1,2.6c0,0.1,0.3,1.1,0.3,1.3c-0.1,0.2-0.1,0.8-0.3,1C114.1,77.2,113.9,77.5,114,78z
		 M141.7,189.6c-11.6,11.6-27.1,18.1-43.6,18.1c-16.5,0-31.9-6.4-43.6-18.1c-11.6-11.6-18.1-27.1-18.1-43.6c0-0.5,0-1.1,0-1.6v0
		v-0.7l3.8-0.7c0,0.5,0,1,0,1.5v0c0.4,14.8,6.4,28.7,16.9,39.2c10.9,10.9,25.4,16.9,40.9,16.9s30-6,40.9-16.9
		c10.9-10.9,16.9-25.4,16.9-40.9c0-0.5,0-1,0-1.5V121l3.9-0.7v24v0.1c0,0.6,0,1.1,0,1.6C159.8,162.5,153.4,178,141.7,189.6z
		 M69.8,179.8c0,0-0.1-0.1,0-0.2l0.5-0.5c0,0,0.1-0.1,0.2,0l2,1.8c0.1,0.1,0.1,0.1,0,0.2l-0.5,0.5c0,0-0.1,0-0.2,0l-0.6-0.5
		l-2.3,2.6l0.6,0.5c0.1,0.1,0.1,0.1,0,0.2l-0.5,0.5c0,0-0.1,0-0.2,0l-2-1.8c0,0-0.1-0.1,0-0.2l0.5-0.5c0,0,0.1-0.1,0.2,0l0.7,0.6
		l2.3-2.6L69.8,179.8z M75.5,186.3c-0.9,1.2-2.6,1.5-3.8,0.6s-1.5-2.6-0.6-3.8s2.6-1.5,3.8-0.6C76.1,183.4,76.3,185.1,75.5,186.3z
		 M77.4,184.3l0.9,3.9l1.4-2.4c0-0.1,0.1-0.1,0.2,0l0.7,0.4c0.1,0,0.1,0.1,0,0.2l-2.6,4.7l-0.9-3.9l-1.4,2.4c0,0.1-0.1,0.1-0.2,0
		l-0.7-0.4c-0.1,0-0.1-0.1,0-0.2L77.4,184.3z M68.8,179.8L68.8,179.8c-0.1,0.1-0.1,0.1-0.2,0l-0.5-0.5c0,0,0-0.1,0-0.1l0,0
		c0-0.1,0.1-0.2,0.2-0.3c0-0.2,0.1-0.4-0.3-0.8c-0.2-0.2-0.4-0.3-0.6-0.3c-0.2,0-0.4,0.2-0.4,0.2c-0.1,0.1-0.2,0.3-0.1,0.6
		c0.1,0.2,0.3,0.4,0.3,0.4c0,0,0.3,0.3,0.5,0.7c0.3,0.7,0.1,1.2-0.4,1.7c0,0-0.3,0.3-0.8,0.4c-0.4,0.1-1,0.1-1.7-0.6
		c-0.5-0.5-0.7-1.2-0.5-1.8c0.1-0.3,0.2-0.5,0.3-0.6l0,0c0,0,0.1,0,0.2,0l0.5,0.6c0,0,0,0.1,0,0.1l0,0v0c0,0.1-0.1,0.2-0.1,0.3
		c-0.1,0.3,0,0.5,0.3,0.8c0.3,0.3,0.5,0.4,0.8,0.3c0.2,0,0.3-0.1,0.3-0.1c0.1-0.1,0.3-0.3,0.1-0.6c-0.1-0.3-0.3-0.4-0.3-0.4
		c0,0-0.3-0.3-0.5-0.7c-0.3-0.6-0.1-1.2,0.3-1.7c0,0,0.5-0.4,1.1-0.4c0.5,0,0.9,0.2,1.3,0.6c0.3,0.3,0.6,0.7,0.6,1.3
		C69.3,179.1,69,179.6,68.8,179.8z M66.5,175.6c-0.1,0.6-0.4,1-0.6,1.1l0,0c-0.1,0-0.1,0-0.2,0l-0.5-0.6c0,0,0-0.1,0-0.1l0,0
		c0.1-0.1,0.1-0.2,0.2-0.3c0.1-0.2,0.1-0.4-0.2-0.8c-0.2-0.2-0.4-0.4-0.6-0.4c-0.2,0-0.4,0.1-0.4,0.1c-0.1,0.1-0.3,0.3-0.2,0.6
		c0.1,0.3,0.2,0.4,0.2,0.4c0,0,0.3,0.4,0.4,0.8c0.2,0.7,0,1.3-0.5,1.7c0,0-0.3,0.3-0.8,0.3c-0.4,0.1-1.1,0-1.6-0.8
		c-0.5-0.6-0.6-1.2-0.3-1.8c0.1-0.3,0.3-0.5,0.4-0.6l0,0c0,0,0.1,0,0.2,0l0.5,0.6c0,0,0,0.1,0,0.1l0,0c0,0,0,0,0,0
		c0,0.1-0.1,0.1-0.1,0.3c-0.1,0.2,0,0.5,0.2,0.8c0.2,0.3,0.5,0.4,0.7,0.4c0.2,0,0.3-0.1,0.3-0.1c0.1-0.1,0.3-0.3,0.2-0.6
		c-0.1-0.3-0.2-0.4-0.2-0.4c0,0-0.3-0.4-0.4-0.8c-0.2-0.7,0-1.2,0.5-1.7c0,0,0.5-0.4,1.2-0.3c0.5,0,0.9,0.3,1.3,0.8
		C66.3,174.6,66.6,175,66.5,175.6z M63.8,171.4L63.8,171.4l-2.2,2.4l0.2,0.3c0,0.1,0,0.1,0,0.2l-0.6,0.4c-0.1,0-0.1,0-0.2,0
		l-0.1-0.1l-0.7,0.8l0,0h0c-0.1,0-0.1,0-0.2,0l-0.4-0.6c0,0,0-0.1,0-0.1l0,0l0.8-0.9l-0.6-0.9l-1.1,0.4c0,0,0,0,0,0c0,0-0.1,0-0.1,0
		l-0.4-0.6c0-0.1,0-0.1,0-0.2l0,0c0,0,0,0,0,0l5-1.8l0,0c0,0,0.1,0,0.1,0.1l0.5,0.7C63.9,171.3,63.9,171.4,63.8,171.4z M62.1,169.4
		c-0.1,0.5-0.3,0.8-0.7,1.1c-0.4,0.2-0.8,0.2-1.3,0c-0.4-0.2-0.8-0.5-1.1-1.1l-0.4-0.8l-1.8,1c-0.1,0-0.1,0-0.2,0l-0.4-0.7
		c0-0.1,0-0.1,0-0.2l2.7-1.5l0.5,0.8l0.9-1.6l0.4-0.3c0.1,0,0.1,0,0.2,0l0.8,1.5C62,168.4,62.1,168.9,62.1,169.4z M81,188.6l1.1,0.5
		l0.8-0.9l-0.1,1.2l1.1,0.5l-1.2,0.3l-0.1,1.2l-0.6-1.1l-1.2,0.3l0.8-0.9L81,188.6z M88.7,192.5c0.1,0,0.1,0.1,0.1,0.1l-0.2,0.7
		c0,0.1-0.1,0.1-0.1,0.1l-0.2,0l0,1.1v0v0c0,0.1-0.1,0.1-0.1,0.1l-0.7-0.2c0,0-0.1-0.1-0.1-0.1v0l0.1-1.2l-1-0.3l-0.6,1l0,0
		c0,0-0.1,0.1-0.1,0.1l-0.7-0.2c-0.1,0-0.1-0.1-0.1-0.2v0l0,0l2.7-4.5l0,0c0,0,0.1-0.1,0.1,0l0.8,0.2c0,0,0.1,0.1,0.1,0.1v0
		l-0.1,3.2L88.7,192.5z M113.4,192.7l-0.9-3.5c0-0.1,0-0.1,0.1-0.2l0.7-0.2c0.1,0,0.1,0,0.1,0.1l0.9,3.5c0.1,0.5,0,1-0.3,1.4
		c-0.3,0.3-0.7,0.6-1.1,0.7c-0.4,0.1-0.9,0.1-1.3-0.1c-0.5-0.2-0.8-0.6-0.9-1.1l-0.9-3.5c0-0.1,0-0.1,0.1-0.2l0.7-0.2
		c0.1,0,0.1,0,0.1,0.1l0.9,3.5c0.2,0.7,0.9,0.5,1,0.5C112.9,193.6,113.6,193.4,113.4,192.7z M119.9,188.8l2.1-1c0.1,0,0.1,0,0.2,0.1
		l0.3,0.7c0,0.1,0,0.1-0.1,0.2l-2.1,1l0.5,1.1l2.3-1.1c0.1,0,0.1,0,0.2,0.1l0.3,0.7c0,0.1,0,0.1-0.1,0.2l-3.1,1.5
		c-0.1,0-0.1,0-0.2-0.1l-2.2-4.7c0-0.1,0-0.1,0.1-0.2l3-1.5c0.1,0,0.1,0,0.2,0.1l0.3,0.7c0,0.1,0,0.1-0.1,0.2l-2.2,1.1L119.9,188.8z
		 M124,185l0.8,0.9l1.1-0.5l-0.6,1.1l0.8,0.9l-1.2-0.3l-0.6,1.1l-0.1-1.2l-1.2-0.3l1.1-0.5L124,185z M118.3,188.9
		c0.2,0.6,0,1.4-0.8,1.9l0,0l0.2,0.2l1.6,1.3l0,0c0,0,0,0,0,0c0,0.1,0,0.1-0.1,0.2l-0.8,0.3c0,0-0.1,0-0.1,0l0,0l-1.7-1.4l-0.2-0.2
		l-0.4,0.2l0.7,2c0,0.1,0,0.1-0.1,0.2l-0.7,0.3c-0.1,0-0.1,0-0.2-0.1l-1.1-2.9l0.8-0.3l-1.3-1.1l0,0l-0.1-0.1l-0.2-0.5
		c0-0.1,0-0.1,0.1-0.1l1.7-0.6c0.5-0.2,1.1-0.2,1.5-0.1C117.8,188.1,118.1,188.5,118.3,188.9z M105.6,165.6l2.5,7.6l-6.5-4.7
		l-6.5,4.7l2.5-7.6l-6.5-4.7h8l2.5-7.6l2.5,7.6h8L105.6,165.6z M109,195.3c0,0.1,0,0.2-0.1,0.2l-0.7,0.1c-0.1,0-0.1,0-0.1-0.1
		l-0.7-4.2l-1.2,0.2c-0.1,0-0.1,0-0.1-0.1l0-0.1l0.4,4.6l-2.9-2.7l0.2,2.8c0,0.1,0,0.1-0.1,0.1l-0.7,0.1c-0.1,0-0.1,0-0.1-0.1
		l-0.4-5.3l2.9,2.7l-0.2-2.8c0-0.1,0-0.1,0.1-0.1l0.7-0.1c0,0,0.1,0,0.1,0c0,0,0-0.1,0.1-0.1l3.4-0.5c0.1,0,0.1,0,0.2,0.1l0.1,0.7
		c0,0.1,0,0.1-0.1,0.1l-1.2,0.2L109,195.3z M101.3,193c0.1,0,0.1,0.1,0.1,0.1l0,0.7c0,0.1-0.1,0.1-0.1,0.1l-2.3,0l0,1.2l2.6,0
		c0.1,0,0.1,0.1,0.1,0.1l0,0.7c0,0.1-0.1,0.1-0.1,0.1l-3.4-0.1c-0.1,0-0.1-0.1-0.1-0.1l0.1-5.2c0-0.1,0.1-0.1,0.1-0.1l3.3,0.1
		c0.1,0,0.1,0.1,0.1,0.1l0,0.7c0,0.1-0.1,0.1-0.1,0.1l-2.5,0l0,1.2L101.3,193z M95.6,193.9l1.2-3.2v0c0-0.1,0.1-0.1,0.1-0.1l0.8,0.1
		c0.1,0,0.1,0.1,0.1,0.1c0,0,0,0,0,0l-1.8,5v0c0,0-0.1,0.1-0.1,0.1l-0.8-0.1c-0.1,0-0.1,0-0.1-0.1l-0.8-5.3c0,0,0,0,0,0v0
		c0-0.1,0.1-0.1,0.1-0.1l0.8,0.1c0.1,0,0.1,0,0.1,0.1v0L95.6,193.9z M91.7,189.9c0.8,0.1,1.5,0.6,1.9,1.4c0.7,1.3,0.2,3-1.1,3.7
		c-0.6,0.3-1.2,0.4-1.8,0.3l-1.3-0.3c-0.1,0-0.1-0.1-0.1-0.2l1-5c0-0.1,0.1-0.1,0.1-0.1L91.7,189.9z M134.1,180.8l-2.5-2.6
		c0,0,0-0.1,0-0.2l0.5-0.5c0,0,0.1,0,0.2,0l2.5,2.6c0.4,0.4,0.5,0.9,0.4,1.4c-0.1,0.4-0.3,0.8-0.6,1.1c-0.4,0.3-0.8,0.5-1.2,0.5
		c-0.5,0-1-0.1-1.3-0.5l-2.5-2.6c0,0,0-0.1,0-0.2l0.5-0.5c0,0,0.1,0,0.2,0l2.5,2.6c0.5,0.5,1.1,0,1.1-0.1
		C134,181.8,134.6,181.3,134.1,180.8z M136.5,178.4c0.9,0,1.6-0.7,1.7-1.5l0,0c0-0.1,0.1-0.1,0.1-0.1h0.7c0.1,0,0.1,0.1,0.1,0.1l0,0
		l0,0l0,0c0,0.2-0.1,0.4-0.1,0.5c-0.3,1.1-1.4,2-2.6,2c-1.5,0-2.7-1.2-2.7-2.7c0-1.3,0.9-2.3,2.1-2.6h0h0c0.1,0,0.1,0.1,0.1,0.1v0.8
		c0,0,0,0.1-0.1,0.1c-0.7,0.2-1.2,0.9-1.2,1.6C134.7,177.6,135.5,178.4,136.5,178.4z M143.3,161.8c0.1,0.2,0.3,0.3,0.3,0.3
		c0.2,0.1,0.4,0.1,0.6-0.2c0.2-0.2,0.3-0.4,0.3-0.4c0,0,0.1-0.4,0.4-0.8c0.5-0.5,1.1-0.7,1.7-0.5c0,0,0.4,0.1,0.7,0.5
		c0.3,0.3,0.5,0.9,0.2,1.8c-0.2,0.7-0.7,1.1-1.3,1.3c-0.3,0-0.6,0-0.7,0c0,0,0,0,0,0c-0.1,0-0.1-0.1-0.1-0.1l0.3-0.7
		c0,0,0.1-0.1,0.1-0.1l0,0h0c0.1,0,0.2,0,0.3,0c0.3-0.1,0.4-0.3,0.5-0.6c0.1-0.4,0.1-0.6-0.1-0.8c-0.1-0.1-0.3-0.2-0.3-0.2
		c-0.2-0.1-0.4-0.1-0.6,0.2c-0.2,0.2-0.3,0.4-0.3,0.4c0,0-0.1,0.4-0.4,0.8c-0.4,0.5-1,0.7-1.7,0.5c-0.1,0-0.6-0.2-0.9-0.8
		c-0.2-0.4-0.2-0.9,0-1.5c0.1-0.4,0.4-0.8,0.9-1.1c0.5-0.3,1-0.2,1.3-0.1h0c0.1,0,0.1,0.1,0.1,0.1l-0.3,0.7c0,0-0.1,0.1-0.1,0.1h0
		c-0.1,0-0.2,0-0.4,0c-0.2,0-0.4,0.1-0.6,0.6C143.2,161.4,143.2,161.6,143.3,161.8z M143.2,163.5L143.2,163.5c0.1,0,0.1,0.1,0.1,0.2
		l-0.3,0.7c0,0-0.1,0.1-0.1,0.1h0c-0.1,0-0.2,0-0.4,0c-0.2,0-0.4,0.1-0.6,0.5c-0.1,0.3-0.1,0.5-0.1,0.7c0.1,0.2,0.3,0.3,0.3,0.3
		c0.2,0.1,0.4,0.1,0.6-0.1c0.2-0.2,0.3-0.4,0.3-0.4c0,0,0.2-0.4,0.5-0.7c0.5-0.5,1.1-0.6,1.7-0.3c0,0,0.4,0.2,0.6,0.5
		c0.3,0.4,0.4,0.9,0.1,1.8c-0.3,0.7-0.8,1.1-1.5,1.1c-0.3,0-0.6,0-0.7-0.1c0,0,0,0,0,0c-0.1,0-0.1-0.1-0.1-0.1l0.3-0.7
		c0,0,0.1-0.1,0.1-0.1l0,0h0c0.1,0,0.2,0,0.3,0c0.3,0,0.5-0.2,0.6-0.5c0.1-0.4,0.2-0.6,0-0.8c-0.1-0.1-0.2-0.2-0.2-0.2
		c-0.2-0.1-0.4-0.1-0.6,0.1c-0.2,0.2-0.3,0.4-0.3,0.4c0,0-0.2,0.4-0.5,0.7c-0.5,0.5-1.1,0.6-1.7,0.3c-0.1,0-0.6-0.3-0.8-0.9
		c-0.2-0.4-0.1-0.9,0.1-1.5c0.1-0.3,0.4-0.8,1-1C142.5,163.3,143,163.4,143.2,163.5z M140.8,167.2l-1.2,2.1l1.1,0.6l1.2-2
		c0-0.1,0.1-0.1,0.2,0l0.7,0.4c0.1,0,0.1,0.1,0,0.2l-1.2,2l1.1,0.6l1.3-2.3c0-0.1,0.1-0.1,0.2,0l0.7,0.4c0.1,0,0.1,0.1,0,0.2l-1.7,3
		c0,0.1-0.1,0.1-0.2,0l-4.5-2.5c-0.1,0-0.1-0.1,0-0.2l1.6-2.9c0-0.1,0.1-0.1,0.2,0l0.7,0.4C140.8,167.1,140.8,167.2,140.8,167.2z
		 M138.4,170.4L138.4,170.4L138.4,170.4c0.1,0,0.2,0,0.2,0.1l0.1,0.8c0,0,0,0.1-0.1,0.1c-0.7,0.3-1.1,1-1,1.7
		c0.1,0.9,0.9,1.6,1.9,1.6c0.9-0.1,1.6-0.8,1.6-1.7l0,0c0-0.1,0.1-0.1,0.1-0.1l0.7-0.1c0.1,0,0.1,0,0.1,0.1l0,0l0,0l0,0
		c0,0.2,0,0.4,0,0.5c-0.2,1.2-1.2,2.1-2.4,2.2c-1.5,0.1-2.8-1-3-2.5C136.5,172,137.3,170.8,138.4,170.4z M130.2,181.5L130.2,181.5
		c0.1,0.1,0,0.1,0,0.2l-0.6,0.5c0,0-0.1,0-0.1,0l0,0c-0.1-0.1-0.2-0.1-0.3-0.2c-0.2-0.1-0.4-0.1-0.8,0.2c-0.3,0.2-0.4,0.4-0.4,0.6
		c0,0.2,0.1,0.4,0.1,0.4c0.1,0.1,0.3,0.3,0.6,0.2c0.3-0.1,0.4-0.2,0.4-0.2c0,0,0.4-0.3,0.8-0.4c0.7-0.2,1.3,0,1.7,0.5
		c0,0,0.3,0.3,0.3,0.8c0,0.4,0,1.1-0.8,1.6c-0.6,0.4-1.2,0.6-1.8,0.3c-0.3-0.1-0.5-0.3-0.6-0.4l0,0c0,0,0-0.1,0-0.2l0.6-0.5
		c0,0,0.1,0,0.1,0l0,0c0,0,0,0,0,0c0.1,0,0.1,0.1,0.3,0.1c0.2,0.1,0.5,0,0.8-0.2c0.3-0.2,0.4-0.5,0.4-0.7c0-0.2-0.1-0.3-0.1-0.3
		c-0.1-0.1-0.3-0.3-0.6-0.2c-0.3,0.1-0.5,0.2-0.5,0.2c0,0-0.4,0.3-0.8,0.4c-0.7,0.2-1.2,0-1.7-0.5c0,0-0.4-0.5-0.3-1.2
		c0-0.5,0.3-0.9,0.8-1.2c0.3-0.2,0.8-0.5,1.3-0.4C129.7,181,130.1,181.3,130.2,181.5z M19.3,142.8v-36.3l158.2-30v36.3L19.3,142.8z"
		/>
	<g enable-background="new    ">
		<path fill="#3F80DF" d="M27.5,127.4c-3.2-3.1-2.7-8.9,1-12.8c3.2-3.3,7.7-4.3,11-2.6l0.1,0l0,0c0.2,0.2,0.1,0.4,0,0.6l-2,2
			c-0.1,0.1-0.3,0.2-0.5,0.1c-2-0.8-4.7-0.1-6.6,1.8c-2.4,2.5-2.7,6.1-0.6,8.2c1.9,1.9,5.1,1.7,7.5-0.4c0,0,0,0,0,0
			c0.2-0.1,0.4-0.1,0.5,0l1.6,1.6c0.2,0.1,0.1,0.4,0,0.6c0,0,0,0,0,0l0,0v0c-0.5,0.4-1,0.8-1.6,1.2C34.4,130.1,30.1,130,27.5,127.4z
			"/>
		<path fill="#3F80DF" d="M49.1,126.5c-4.9,0.9-8.9-2.3-8.9-7.2s4-9.7,8.9-10.6c4.9-0.9,8.9,2.3,8.9,7.2S54,125.6,49.1,126.5z
			 M49.1,111.9c-3.1,0.6-5.7,3.6-5.7,6.8s2.6,5.2,5.7,4.6c3.1-0.6,5.7-3.6,5.7-6.7S52.2,111.3,49.1,111.9z"/>
		<path fill="#3F80DF" d="M60.5,124.3c-0.2,0-0.4-0.1-0.4-0.4V107c0-0.2,0.2-0.4,0.4-0.5l4.4-0.8c2.6-0.5,5.1,0.1,6.9,1.9
			c3.1,3.2,2.6,8.9-1.2,12.8c-1.7,1.7-3.7,2.7-5.7,3.1L60.5,124.3z M64.9,108.9l-1.6,0.3v11.3l1.6-0.3c1.3-0.2,2.6-0.9,3.6-2
			c2.4-2.4,2.8-6.1,0.8-8.1C68.2,109,66.6,108.6,64.9,108.9z"/>
		<path fill="#3F80DF" d="M88.3,118.6c0,0.2-0.2,0.5-0.4,0.5l-11.3,2.2c-0.2,0-0.4-0.1-0.4-0.3v-17c0-0.2,0.2-0.4,0.4-0.5l10.9-2.1
			c0.2,0,0.4,0.1,0.4,0.3v2.4c0,0.2-0.2,0.4-0.4,0.5l-8.1,1.5v4.1l7.7-1.5c0.2,0,0.4,0.1,0.4,0.3v2.4c0,0.2-0.2,0.4-0.4,0.5
			l-7.7,1.5v4l8.5-1.6c0.2,0,0.4,0.1,0.4,0.3V118.6z"/>
		<path fill="#3F80DF" d="M102.4,113.1c-3.2-3.1-2.7-8.9,1-12.8c3.2-3.3,7.7-4.3,11-2.5l0.1,0l0,0c0.2,0.2,0.1,0.4,0,0.6l-2,2
			c-0.1,0.1-0.3,0.2-0.5,0.1c-2-0.8-4.7-0.1-6.6,1.8c-2.4,2.5-2.7,6.1-0.6,8.2c1.9,1.9,5.1,1.7,7.5-0.4c0,0,0,0,0,0
			c0.2-0.1,0.4-0.1,0.5,0l1.6,1.6c0.2,0.1,0.1,0.4,0,0.6c0,0,0,0,0,0l0,0v0c-0.5,0.4-1,0.8-1.6,1.2
			C109.4,115.8,105.1,115.7,102.4,113.1z"/>
		<path fill="#3F80DF" d="M129,110.6c0,0.1,0,0.1,0,0.2c0,0.2-0.2,0.5-0.4,0.5l-2.8,0.5c-0.1,0-0.3,0-0.3-0.1l0-0.1l-3.5-5.6
			l-0.4-0.7l-1.6,0.3v6.9c0,0.2-0.2,0.4-0.4,0.5l-2.4,0.5c-0.2,0-0.4-0.1-0.4-0.3V103l3-0.6l-2.8-4.3v0l-0.2-0.3v-1.6
			c0-0.2,0.2-0.4,0.4-0.5l6.1-1.2c1.9-0.4,3.5-0.2,4.7,0.6c1.1,0.7,1.8,2,1.8,3.4c0,2.2-1.6,4.7-4.6,5.9l0.1,0.2l0.5,0.7L129,110.6
			L129,110.6z M123.4,101.8c0.2,0,0.4-0.1,0.6-0.2c1.7-0.5,2.4-1.6,2.4-2.4c0-1-1-1.8-3.2-1.4l-2.1,0.4l1.8,2.9L123.4,101.8z"/>
		<path fill="#3F80DF" d="M143.4,104c0,0.2-0.2,0.4-0.4,0.5l-0.6,0.1l0.9,3.3l0,0.1v0c0,0.2-0.2,0.5-0.4,0.5l-2.5,0.5
			c-0.2,0-0.3-0.1-0.4-0.2l0-0.1l-0.9-3.5l-3.5,0.7l-0.9,3.9c0,0,0,0,0,0c0,0.2-0.2,0.3-0.4,0.4l-2.5,0.5c-0.2,0-0.4-0.1-0.4-0.4
			v-0.1c0,0,0,0,0,0l4.2-17.6l0-0.1c0.1-0.2,0.2-0.3,0.4-0.3l2.7-0.5c0.2,0,0.3,0,0.4,0.2l0,0.1l2.5,9.7l1.4-0.3
			c0.2,0,0.4,0.1,0.4,0.3V104z M138.3,102.2l-1-3.7l-1,4L138.3,102.2z"/>
		<path fill="#3F80DF" d="M158.1,90.6c0,0.2-0.2,0.5-0.4,0.5l-6.7,1.3l3.4,3.4l1.2-0.2c0.3-0.1,0.5,0.1,0.5,0.3v2.4
			c0,0.2-0.2,0.5-0.5,0.5l-6.4,1.2v6.9c0,0.2-0.2,0.5-0.4,0.5l-2.4,0.5c-0.2,0-0.4-0.1-0.4-0.4V97.4l4.2-0.8l-4.2-4.3v-1.8
			c0-0.2,0.2-0.5,0.4-0.5l11.3-2.2c0.2,0,0.4,0.1,0.4,0.4V90.6z"/>
		<path fill="#3F80DF" d="M171.8,88.1c0,0.2-0.2,0.5-0.5,0.5l-4,0.8v14.1c0,0.3-0.2,0.5-0.4,0.6l-2.4,0.5c-0.2,0-0.4-0.2-0.4-0.4
			V89.9l-4,0.8c-0.2,0-0.4-0.1-0.4-0.3v-2.4c0-0.2,0.2-0.4,0.4-0.5l11.2-2.1c0.3-0.1,0.5,0.1,0.5,0.3V88.1z"/>
	</g>
</g>
</svg>
